<?xml version="1.0" encoding="UTF-8" standalone="no"?>
<!DOCTYPE svg PUBLIC "-//W3C//DTD SVG 1.1//EN" "http://www.w3.org/Graphics/SVG/1.1/DTD/svg11.dtd">
<svg width="100%" height="100%" viewBox="0 0 49 49" version="1.1" xmlns="http://www.w3.org/2000/svg" xmlns:xlink="http://www.w3.org/1999/xlink" xml:space="preserve" xmlns:serif="http://www.serif.com/" style="fill-rule:evenodd;clip-rule:evenodd;stroke-linecap:round;stroke-linejoin:round;stroke-miterlimit:1.5;">
    <g transform="matrix(1,0,0,1,0.000359,0.0001)">
        <g transform="matrix(1,0,0,1,0.500641,0.5004)">
            <g transform="matrix(1,0,0,1,-59.253,-32.4065)">
                <g>
                    <g>
                        <path d="M106.752,44.656C106.752,38.171 101.487,32.906 95.002,32.906L71.502,32.906C65.017,32.906 59.752,38.171 59.752,44.656L59.752,68.156C59.752,74.641 65.017,79.906 71.502,79.906L95.002,79.906C101.487,79.906 106.752,74.641 106.752,68.156L106.752,44.656Z" style="fill:none;stroke:white;stroke-width:2px;"/>
                    </g>
                </g>
            </g>
        </g>
        <g transform="matrix(1,0,0,1,0.500641,0.5004)">
            <g transform="matrix(0.0478932,0,0,0.0478933,1.102,6.33)">
                <g>
                    <g>
                        <g transform="matrix(1,0,0,0.901476,0,84.6916)">
                            <path d="M810.465,843.694L810.465,615.337C810.465,589.603 805.418,564.623 795.465,541.091C785.858,518.376 772.11,497.983 754.604,480.477C737.098,462.971 716.706,449.224 693.991,439.617C670.459,429.664 645.478,424.617 619.745,424.617L597.274,424.617C596.615,431.43 596.515,438.405 597.135,445.47C597.401,448.502 597.702,451.556 598.022,454.617L619.745,454.617C708.509,454.617 780.465,526.574 780.465,615.338L780.465,859.606" style="fill:white;fill-rule:nonzero;"/>
                        </g>
                        <g transform="matrix(1,0,0,0.901474,0,84.6934)">
                            <path d="M145.713,843.694C145.713,843.694 154.404,859.606 175.713,859.606L175.713,615.337C175.713,526.573 247.67,454.616 336.434,454.616L358.157,454.616C358.476,451.554 358.779,448.501 359.044,445.469C359.664,438.405 359.564,431.43 358.904,424.616L336.434,424.616C310.701,424.616 285.72,429.663 262.188,439.616C239.474,449.222 219.08,462.97 201.574,480.476C184.068,497.983 170.321,518.375 160.713,541.09C150.76,564.622 145.713,589.602 145.713,615.336L145.713,843.694Z" style="fill:white;fill-rule:nonzero;"/>
                        </g>
                        <g transform="matrix(1.23524,0,0,1.23524,-89.8638,-184.316)">
                            <path d="M608.011,678.055L554.445,678.055C548.923,678.055 544.445,682.533 544.445,688.055L544.445,706.23C544.445,726.544 560.914,745.884 581.228,745.884C601.543,745.884 618.011,726.544 618.011,706.23L618.011,688.055C618.011,682.532 613.533,678.055 608.011,678.055Z" style="fill:white;fill-rule:nonzero;"/>
                        </g>
                        <path d="M319.775,304.95C323.542,313.914 326.746,323.804 333.078,331.365C337.485,336.628 344.375,340.403 351.316,341.447C366.968,366.492 378.512,395.259 380.96,424.617C381.591,432.186 381.627,439.796 380.96,447.391C380.749,449.801 380.519,452.209 380.276,454.617C379.359,463.718 378.237,472.796 377.067,481.868C376.022,489.972 374.94,498.071 373.925,506.177C373.674,508.187 373.629,510.075 373.754,511.868C374.345,520.352 378.986,526.535 386.201,531.642C403.371,543.799 422.343,552.421 442.071,559.403C453.96,563.61 465.884,566.149 477.841,566.326C477.924,566.325 478.008,566.32 478.091,566.316C478.174,566.32 478.258,566.325 478.341,566.326C490.296,566.149 502.221,563.61 514.112,559.403C533.839,552.422 552.811,543.799 569.981,531.642C577.197,526.534 581.836,520.352 582.428,511.868C582.553,510.076 582.508,508.186 582.257,506.177C581.242,498.071 580.16,489.971 579.115,481.868C577.945,472.795 576.823,463.718 575.906,454.617C575.663,452.21 575.433,449.802 575.222,447.391C574.556,439.796 574.592,432.186 575.222,424.617C577.669,395.259 589.213,366.492 604.866,341.447C611.807,340.403 618.697,336.629 623.104,331.365C629.436,323.805 632.64,313.914 636.407,304.95C641.222,293.488 646.249,282.09 650.84,270.536C657.899,252.77 661.574,230.198 645.103,216.246C640.569,212.406 634.646,210.529 628.761,210.529C628.634,210.529 628.508,210.53 628.381,210.532L628.371,210.532C627.679,210.532 626.969,209.57 626.26,207.958C626.455,179.988 628.989,150.533 625.105,122.958C622.764,106.331 617.33,90.291 610.263,75.102C594.037,40.222 567.385,19.118 530.6,8.1C513.456,2.965 495.845,0.187 478.345,0C478.262,0.001 478.178,0.003 478.095,0.005C478.012,0.003 477.928,0.001 477.845,0C460.345,0.187 442.734,2.965 425.59,8.1C388.805,19.118 362.152,40.222 345.926,75.102C338.86,90.291 333.425,106.331 331.084,122.958C327.201,150.533 329.733,179.987 329.929,207.958C329.22,209.57 328.509,210.532 327.818,210.532L327.808,210.532C327.681,210.53 327.554,210.529 327.428,210.529C321.543,210.529 315.621,212.405 311.086,216.246C294.614,230.198 298.289,252.77 305.349,270.536C309.934,282.09 314.96,293.488 319.775,304.95Z" style="fill:none;fill-rule:nonzero;stroke:white;stroke-width:41.76px;stroke-linecap:butt;stroke-miterlimit:2;"/>
                    </g>
                </g>
            </g>
        </g>
    </g>
</svg>
