<?xml version="1.0" encoding="UTF-8" standalone="no"?>
<!DOCTYPE svg PUBLIC "-//W3C//DTD SVG 1.1//EN" "http://www.w3.org/Graphics/SVG/1.1/DTD/svg11.dtd">
<svg width="100%" height="100%" viewBox="0 0 49 49" version="1.1" xmlns="http://www.w3.org/2000/svg" xmlns:xlink="http://www.w3.org/1999/xlink" xml:space="preserve" xmlns:serif="http://www.serif.com/" style="fill-rule:evenodd;clip-rule:evenodd;stroke-linecap:round;stroke-linejoin:round;stroke-miterlimit:1.5;">
    <g transform="matrix(1,0,0,1,1.6e-05,0.000186)">
        <g transform="matrix(1,0,0,1,0.500384,0.500414)">
            <g transform="matrix(1,0,0,1,-59.2524,-32.4066)">
                <g>
                    <g>
                        <path d="M106.752,44.656C106.752,38.171 101.487,32.906 95.002,32.906L71.502,32.906C65.017,32.906 59.752,38.171 59.752,44.656L59.752,68.156C59.752,74.641 65.017,79.906 71.502,79.906L95.002,79.906C101.487,79.906 106.752,74.641 106.752,68.156L106.752,44.656Z" style="fill:none;stroke:white;stroke-width:2px;"/>
                    </g>
                </g>
            </g>
        </g>
        <g transform="matrix(1,0,0,1,0.500384,0.500414)">
            <g transform="matrix(1,0,0,1,0.434854,-1.73381)">
                <g>
                    <g transform="matrix(1,0,0,0.693252,1.6e-05,1.45738)">
                        <g transform="matrix(1.29548,0,0,1.15603,-2.47031,-15.8384)">
                            <path d="M12.938,31.306C12.938,30.849 12.607,30.478 12.2,30.478L8.956,30.478C8.548,30.478 8.217,30.849 8.217,31.306L8.217,32.962C8.217,33.419 8.548,33.79 8.956,33.79L12.2,33.79C12.607,33.79 12.938,33.419 12.938,32.962L12.938,31.306Z" style="fill:white;"/>
                        </g>
                        <g transform="matrix(4.3385,0,0,1.15603,-17.1783,-15.8384)">
                            <path d="M12.938,31.306C12.938,30.849 12.849,30.478 12.739,30.478L8.417,30.478C8.307,30.478 8.217,30.849 8.217,31.306L8.217,32.962C8.217,33.419 8.307,33.79 8.417,33.79L12.739,33.79C12.849,33.79 12.938,33.419 12.938,32.962L12.938,31.306Z" style="fill:white;"/>
                        </g>
                    </g>
                    <g transform="matrix(1,0,0,0.693252,1.6e-05,10.9607)">
                        <g transform="matrix(1.29548,0,0,1.15603,-2.47031,-15.8384)">
                            <path d="M12.938,31.306C12.938,30.849 12.607,30.478 12.2,30.478L8.956,30.478C8.548,30.478 8.217,30.849 8.217,31.306L8.217,32.962C8.217,33.419 8.548,33.79 8.956,33.79L12.2,33.79C12.607,33.79 12.938,33.419 12.938,32.962L12.938,31.306Z" style="fill:white;"/>
                        </g>
                        <g transform="matrix(4.3385,0,0,1.15603,-17.1783,-15.8384)">
                            <path d="M12.938,31.306C12.938,30.849 12.849,30.478 12.739,30.478L8.417,30.478C8.307,30.478 8.217,30.849 8.217,31.306L8.217,32.962C8.217,33.419 8.307,33.79 8.417,33.79L12.739,33.79C12.849,33.79 12.938,33.419 12.938,32.962L12.938,31.306Z" style="fill:white;"/>
                        </g>
                    </g>
                    <g transform="matrix(1,0,0,0.693252,1.6e-05,20.464)">
                        <g transform="matrix(1.29548,0,0,1.15603,-2.47031,-15.8384)">
                            <path d="M12.938,31.306C12.938,30.849 12.607,30.478 12.2,30.478L8.956,30.478C8.548,30.478 8.217,30.849 8.217,31.306L8.217,32.962C8.217,33.419 8.548,33.79 8.956,33.79L12.2,33.79C12.607,33.79 12.938,33.419 12.938,32.962L12.938,31.306Z" style="fill:white;"/>
                        </g>
                        <g transform="matrix(4.3385,0,0,1.15603,-17.1783,-15.8384)">
                            <path d="M12.938,31.306C12.938,30.849 12.849,30.478 12.739,30.478L8.417,30.478C8.307,30.478 8.217,30.849 8.217,31.306L8.217,32.962C8.217,33.419 8.307,33.79 8.417,33.79L12.739,33.79C12.849,33.79 12.938,33.419 12.938,32.962L12.938,31.306Z" style="fill:white;"/>
                        </g>
                    </g>
                </g>
            </g>
        </g>
    </g>
</svg>
