<?xml version="1.0" encoding="UTF-8" standalone="no"?>
<!DOCTYPE svg PUBLIC "-//W3C//DTD SVG 1.1//EN" "http://www.w3.org/Graphics/SVG/1.1/DTD/svg11.dtd">
<svg width="100%" height="100%" viewBox="0 0 49 50" version="1.1" xmlns="http://www.w3.org/2000/svg" xmlns:xlink="http://www.w3.org/1999/xlink" xml:space="preserve" xmlns:serif="http://www.serif.com/" style="fill-rule:evenodd;clip-rule:evenodd;stroke-linecap:round;stroke-linejoin:round;stroke-miterlimit:1.5;">
    <g transform="matrix(1,0,0,1,0.500891,0.499755)">
        <g transform="matrix(1,0,0,1,-110.991,-87.0674)">
            <g transform="matrix(1,0,0,1,51.7381,54.6615)">
                <g>
                    <path d="M106.752,44.656C106.752,38.171 101.487,32.906 95.002,32.906L71.502,32.906C65.017,32.906 59.752,38.171 59.752,44.656L59.752,68.156C59.752,74.641 65.017,79.906 71.502,79.906L95.002,79.906C101.487,79.906 106.752,74.641 106.752,68.156L106.752,44.656Z" style="fill:none;stroke:white;stroke-width:2px;"/>
                </g>
            </g>
        </g>
        <g transform="matrix(1,0,0,1,-110.991,-87.0674)">
            <g transform="matrix(2.05973,0,0,2.05973,-263.605,-121.516)">
                <g>
                    <g transform="matrix(12.1375,0,0,12.1375,187.351,116.089)">
                        <path d="M0.232,-0.198L0.365,-0.528L0.538,-0.528L0.288,-0L0.125,-0L0.04,-0.528L0.205,-0.528L0.232,-0.198Z" style="fill:white;fill-rule:nonzero;"/>
                    </g>
                    <g transform="matrix(12.1375,0,0,12.1375,193.491,116.089)">
                        <path d="M0.292,-0.151C0.296,-0.173 0.279,-0.189 0.242,-0.2L0.207,-0.208C0.15,-0.223 0.109,-0.244 0.083,-0.271C0.056,-0.299 0.044,-0.331 0.045,-0.368C0.047,-0.418 0.07,-0.46 0.113,-0.491C0.156,-0.523 0.209,-0.539 0.272,-0.538C0.334,-0.537 0.385,-0.522 0.423,-0.491C0.462,-0.46 0.481,-0.418 0.482,-0.366L0.322,-0.366C0.323,-0.408 0.305,-0.429 0.267,-0.429C0.25,-0.429 0.235,-0.424 0.221,-0.414C0.207,-0.405 0.199,-0.392 0.196,-0.376C0.191,-0.35 0.214,-0.332 0.266,-0.322C0.311,-0.311 0.346,-0.299 0.371,-0.284C0.396,-0.27 0.415,-0.253 0.428,-0.232C0.441,-0.211 0.447,-0.186 0.446,-0.157C0.445,-0.125 0.434,-0.096 0.415,-0.071C0.395,-0.046 0.366,-0.026 0.328,-0.011C0.291,0.004 0.25,0.011 0.206,0.01C0.168,0.009 0.133,0.001 0.1,-0.014C0.067,-0.03 0.042,-0.051 0.023,-0.078C0.005,-0.105 -0.005,-0.136 -0.005,-0.17L0.144,-0.169C0.145,-0.123 0.168,-0.099 0.214,-0.1C0.234,-0.1 0.251,-0.105 0.265,-0.114C0.279,-0.122 0.288,-0.135 0.292,-0.151Z" style="fill:white;fill-rule:nonzero;"/>
                    </g>
                </g>
            </g>
        </g>
    </g>
</svg>
